<mxfile host="app.diagrams.net" modified="2023-10-04T11:51:41.946Z" agent="Mozilla/5.0 (Windows NT 10.0; Win64; x64) AppleWebKit/537.36 (KHTML, like Gecko) Chrome/117.0.0.0 Safari/537.36 Edg/117.0.2045.47" etag="u2k2Tt2jBd3MMICNbRJ7" version="22.0.2" type="device">
  <diagram name="Page-1" id="HvaR0VkS8oNrcvwDUC2H">
    <mxGraphModel dx="1209" dy="1806" grid="1" gridSize="10" guides="1" tooltips="1" connect="1" arrows="1" fold="1" page="1" pageScale="1" pageWidth="850" pageHeight="1100" math="0" shadow="0">
      <root>
        <mxCell id="0" />
        <mxCell id="1" parent="0" />
        <mxCell id="HFR2gXASh5weQDlg1E95-1" value="Patient" style="rounded=0;whiteSpace=wrap;html=1;" vertex="1" parent="1">
          <mxGeometry x="160" y="60" width="120" height="60" as="geometry" />
        </mxCell>
        <mxCell id="HFR2gXASh5weQDlg1E95-2" value="Doctor" style="rounded=0;whiteSpace=wrap;html=1;" vertex="1" parent="1">
          <mxGeometry x="170" y="310" width="120" height="60" as="geometry" />
        </mxCell>
        <mxCell id="HFR2gXASh5weQDlg1E95-3" value="Appointment" style="rounded=0;whiteSpace=wrap;html=1;" vertex="1" parent="1">
          <mxGeometry x="550" y="300" width="120" height="60" as="geometry" />
        </mxCell>
        <mxCell id="HFR2gXASh5weQDlg1E95-4" value="Clinic" style="rounded=0;whiteSpace=wrap;html=1;" vertex="1" parent="1">
          <mxGeometry x="550" y="50" width="120" height="60" as="geometry" />
        </mxCell>
        <mxCell id="HFR2gXASh5weQDlg1E95-7" value="" style="edgeStyle=orthogonalEdgeStyle;rounded=0;orthogonalLoop=1;jettySize=auto;html=1;" edge="1" parent="1" source="HFR2gXASh5weQDlg1E95-5" target="HFR2gXASh5weQDlg1E95-2">
          <mxGeometry relative="1" as="geometry">
            <Array as="points">
              <mxPoint x="220" y="300" />
              <mxPoint x="220" y="300" />
            </Array>
          </mxGeometry>
        </mxCell>
        <mxCell id="HFR2gXASh5weQDlg1E95-11" value="" style="edgeStyle=orthogonalEdgeStyle;rounded=0;orthogonalLoop=1;jettySize=auto;html=1;" edge="1" parent="1" source="HFR2gXASh5weQDlg1E95-5" target="HFR2gXASh5weQDlg1E95-1">
          <mxGeometry relative="1" as="geometry">
            <Array as="points">
              <mxPoint x="220" y="190" />
            </Array>
          </mxGeometry>
        </mxCell>
        <mxCell id="HFR2gXASh5weQDlg1E95-5" value="" style="rhombus;whiteSpace=wrap;html=1;" vertex="1" parent="1">
          <mxGeometry x="180" y="160" width="80" height="80" as="geometry" />
        </mxCell>
        <mxCell id="HFR2gXASh5weQDlg1E95-9" style="edgeStyle=orthogonalEdgeStyle;rounded=0;orthogonalLoop=1;jettySize=auto;html=1;entryX=1;entryY=0.75;entryDx=0;entryDy=0;" edge="1" parent="1" source="HFR2gXASh5weQDlg1E95-8" target="HFR2gXASh5weQDlg1E95-2">
          <mxGeometry relative="1" as="geometry">
            <Array as="points">
              <mxPoint x="370" y="200" />
              <mxPoint x="370" y="355" />
            </Array>
          </mxGeometry>
        </mxCell>
        <mxCell id="HFR2gXASh5weQDlg1E95-10" style="edgeStyle=orthogonalEdgeStyle;rounded=0;orthogonalLoop=1;jettySize=auto;html=1;entryX=0;entryY=0.75;entryDx=0;entryDy=0;" edge="1" parent="1" source="HFR2gXASh5weQDlg1E95-8" target="HFR2gXASh5weQDlg1E95-4">
          <mxGeometry relative="1" as="geometry">
            <Array as="points">
              <mxPoint x="510" y="200" />
              <mxPoint x="510" y="95" />
            </Array>
          </mxGeometry>
        </mxCell>
        <mxCell id="HFR2gXASh5weQDlg1E95-8" value="" style="rhombus;whiteSpace=wrap;html=1;" vertex="1" parent="1">
          <mxGeometry x="400" y="160" width="80" height="80" as="geometry" />
        </mxCell>
        <mxCell id="HFR2gXASh5weQDlg1E95-15" value="" style="edgeStyle=orthogonalEdgeStyle;rounded=0;orthogonalLoop=1;jettySize=auto;html=1;" edge="1" parent="1" source="HFR2gXASh5weQDlg1E95-14" target="HFR2gXASh5weQDlg1E95-1">
          <mxGeometry relative="1" as="geometry">
            <Array as="points">
              <mxPoint x="350" y="90" />
              <mxPoint x="350" y="90" />
            </Array>
          </mxGeometry>
        </mxCell>
        <mxCell id="HFR2gXASh5weQDlg1E95-19" value="" style="edgeStyle=orthogonalEdgeStyle;rounded=0;orthogonalLoop=1;jettySize=auto;html=1;entryX=0;entryY=0.5;entryDx=0;entryDy=0;" edge="1" parent="1" source="HFR2gXASh5weQDlg1E95-14" target="HFR2gXASh5weQDlg1E95-4">
          <mxGeometry relative="1" as="geometry">
            <mxPoint x="485" y="90" as="targetPoint" />
          </mxGeometry>
        </mxCell>
        <mxCell id="HFR2gXASh5weQDlg1E95-14" value="" style="rhombus;whiteSpace=wrap;html=1;" vertex="1" parent="1">
          <mxGeometry x="385" y="70" width="40" height="40" as="geometry" />
        </mxCell>
        <mxCell id="HFR2gXASh5weQDlg1E95-22" style="edgeStyle=orthogonalEdgeStyle;rounded=0;orthogonalLoop=1;jettySize=auto;html=1;entryX=1;entryY=0.75;entryDx=0;entryDy=0;" edge="1" parent="1" source="HFR2gXASh5weQDlg1E95-20" target="HFR2gXASh5weQDlg1E95-1">
          <mxGeometry relative="1" as="geometry" />
        </mxCell>
        <mxCell id="HFR2gXASh5weQDlg1E95-23" style="edgeStyle=orthogonalEdgeStyle;rounded=0;orthogonalLoop=1;jettySize=auto;html=1;entryX=0;entryY=0.5;entryDx=0;entryDy=0;" edge="1" parent="1" source="HFR2gXASh5weQDlg1E95-20" target="HFR2gXASh5weQDlg1E95-3">
          <mxGeometry relative="1" as="geometry" />
        </mxCell>
        <mxCell id="HFR2gXASh5weQDlg1E95-20" value="" style="rhombus;whiteSpace=wrap;html=1;" vertex="1" parent="1">
          <mxGeometry x="400" y="280" width="50" height="60" as="geometry" />
        </mxCell>
        <mxCell id="HFR2gXASh5weQDlg1E95-27" style="edgeStyle=orthogonalEdgeStyle;rounded=0;orthogonalLoop=1;jettySize=auto;html=1;entryX=0;entryY=0;entryDx=0;entryDy=0;strokeColor=none;" edge="1" parent="1" source="HFR2gXASh5weQDlg1E95-53" target="HFR2gXASh5weQDlg1E95-1">
          <mxGeometry relative="1" as="geometry">
            <mxPoint x="155" y="34.5" as="sourcePoint" />
          </mxGeometry>
        </mxCell>
        <mxCell id="HFR2gXASh5weQDlg1E95-24" value="PatientId&lt;br&gt;PK" style="ellipse;whiteSpace=wrap;html=1;" vertex="1" parent="1">
          <mxGeometry x="60" y="10" width="70" height="50" as="geometry" />
        </mxCell>
        <mxCell id="HFR2gXASh5weQDlg1E95-25" value="Name" style="ellipse;whiteSpace=wrap;html=1;" vertex="1" parent="1">
          <mxGeometry x="130" y="-20" width="110" height="60" as="geometry" />
        </mxCell>
        <mxCell id="HFR2gXASh5weQDlg1E95-26" value="Contact Information" style="ellipse;whiteSpace=wrap;html=1;" vertex="1" parent="1">
          <mxGeometry x="40" y="70" width="80" height="50" as="geometry" />
        </mxCell>
        <mxCell id="HFR2gXASh5weQDlg1E95-34" value="" style="edgeStyle=orthogonalEdgeStyle;rounded=0;orthogonalLoop=1;jettySize=auto;html=1;entryX=0;entryY=0;entryDx=0;entryDy=0;strokeColor=none;" edge="1" parent="1" source="HFR2gXASh5weQDlg1E95-24">
          <mxGeometry relative="1" as="geometry">
            <mxPoint x="130" y="35" as="sourcePoint" />
            <mxPoint x="130" y="34.5" as="targetPoint" />
          </mxGeometry>
        </mxCell>
        <mxCell id="HFR2gXASh5weQDlg1E95-41" value="DoctorId&lt;br&gt;PK" style="ellipse;whiteSpace=wrap;html=1;" vertex="1" parent="1">
          <mxGeometry x="50" y="280" width="90" height="60" as="geometry" />
        </mxCell>
        <mxCell id="HFR2gXASh5weQDlg1E95-42" value="Name" style="ellipse;whiteSpace=wrap;html=1;" vertex="1" parent="1">
          <mxGeometry x="50" y="350" width="110" height="60" as="geometry" />
        </mxCell>
        <mxCell id="HFR2gXASh5weQDlg1E95-43" value="Specialization" style="ellipse;whiteSpace=wrap;html=1;" vertex="1" parent="1">
          <mxGeometry x="160" y="410" width="110" height="60" as="geometry" />
        </mxCell>
        <mxCell id="HFR2gXASh5weQDlg1E95-44" value="ClinicId&lt;br&gt;PK" style="ellipse;whiteSpace=wrap;html=1;" vertex="1" parent="1">
          <mxGeometry x="660" y="-20" width="110" height="60" as="geometry" />
        </mxCell>
        <mxCell id="HFR2gXASh5weQDlg1E95-45" value="ClinicName" style="ellipse;whiteSpace=wrap;html=1;" vertex="1" parent="1">
          <mxGeometry x="620" y="140" width="110" height="60" as="geometry" />
        </mxCell>
        <mxCell id="HFR2gXASh5weQDlg1E95-46" value="Location" style="ellipse;whiteSpace=wrap;html=1;" vertex="1" parent="1">
          <mxGeometry x="700" y="65" width="110" height="60" as="geometry" />
        </mxCell>
        <mxCell id="HFR2gXASh5weQDlg1E95-47" value="AppointmentId&lt;br&gt;PK" style="ellipse;whiteSpace=wrap;html=1;" vertex="1" parent="1">
          <mxGeometry x="425" y="400" width="100" height="60" as="geometry" />
        </mxCell>
        <mxCell id="HFR2gXASh5weQDlg1E95-48" value="AppointmentTime" style="ellipse;whiteSpace=wrap;html=1;" vertex="1" parent="1">
          <mxGeometry x="525" y="440" width="100" height="60" as="geometry" />
        </mxCell>
        <mxCell id="HFR2gXASh5weQDlg1E95-49" value="PatientId&lt;br&gt;FK" style="ellipse;whiteSpace=wrap;html=1;" vertex="1" parent="1">
          <mxGeometry x="640" y="460" width="70" height="50" as="geometry" />
        </mxCell>
        <mxCell id="HFR2gXASh5weQDlg1E95-50" value="ClinicId&lt;br&gt;FK" style="ellipse;whiteSpace=wrap;html=1;" vertex="1" parent="1">
          <mxGeometry x="720" y="390" width="120" height="60" as="geometry" />
        </mxCell>
        <mxCell id="HFR2gXASh5weQDlg1E95-51" value="DoctorId&lt;br&gt;FK" style="ellipse;whiteSpace=wrap;html=1;" vertex="1" parent="1">
          <mxGeometry x="720" y="285" width="90" height="60" as="geometry" />
        </mxCell>
        <mxCell id="HFR2gXASh5weQDlg1E95-52" value="" style="line;strokeWidth=1;rotatable=0;dashed=0;labelPosition=right;align=left;verticalAlign=middle;spacingTop=0;spacingLeft=6;points=[];portConstraint=eastwest;" vertex="1" parent="1">
          <mxGeometry x="120" y="90" width="40" height="10" as="geometry" />
        </mxCell>
        <mxCell id="HFR2gXASh5weQDlg1E95-54" value="" style="edgeStyle=orthogonalEdgeStyle;rounded=0;orthogonalLoop=1;jettySize=auto;html=1;entryX=0;entryY=0;entryDx=0;entryDy=0;strokeColor=none;" edge="1" parent="1" target="HFR2gXASh5weQDlg1E95-53">
          <mxGeometry relative="1" as="geometry">
            <mxPoint x="155" y="34.5" as="sourcePoint" />
            <mxPoint x="160" y="60" as="targetPoint" />
          </mxGeometry>
        </mxCell>
        <mxCell id="HFR2gXASh5weQDlg1E95-53" value="" style="line;strokeWidth=1;rotatable=0;dashed=0;labelPosition=right;align=left;verticalAlign=middle;spacingTop=0;spacingLeft=6;points=[];portConstraint=eastwest;" vertex="1" parent="1">
          <mxGeometry x="120" y="50" width="40" height="10" as="geometry" />
        </mxCell>
        <mxCell id="HFR2gXASh5weQDlg1E95-56" value="" style="line;strokeWidth=1;direction=south;html=1;" vertex="1" parent="1">
          <mxGeometry x="230" y="20" width="10" height="40" as="geometry" />
        </mxCell>
        <mxCell id="HFR2gXASh5weQDlg1E95-57" value="" style="line;strokeWidth=1;direction=south;html=1;" vertex="1" parent="1">
          <mxGeometry x="660" y="25" width="10" height="30" as="geometry" />
        </mxCell>
        <mxCell id="HFR2gXASh5weQDlg1E95-58" value="" style="line;strokeWidth=1;html=1;" vertex="1" parent="1">
          <mxGeometry x="665" y="90" width="40" height="10" as="geometry" />
        </mxCell>
        <mxCell id="HFR2gXASh5weQDlg1E95-59" value="" style="line;strokeWidth=1;direction=south;html=1;" vertex="1" parent="1">
          <mxGeometry x="525" y="110" width="250" height="30" as="geometry" />
        </mxCell>
        <mxCell id="HFR2gXASh5weQDlg1E95-60" value="" style="line;strokeWidth=1;html=1;" vertex="1" parent="1">
          <mxGeometry x="140" y="310" width="30" height="10" as="geometry" />
        </mxCell>
        <mxCell id="HFR2gXASh5weQDlg1E95-61" value="" style="line;strokeWidth=1;html=1;" vertex="1" parent="1">
          <mxGeometry x="140" y="350" width="30" height="10" as="geometry" />
        </mxCell>
        <mxCell id="HFR2gXASh5weQDlg1E95-62" value="" style="line;strokeWidth=1;direction=south;html=1;" vertex="1" parent="1">
          <mxGeometry x="200" y="370" width="10" height="40" as="geometry" />
        </mxCell>
        <mxCell id="HFR2gXASh5weQDlg1E95-63" value="" style="line;strokeWidth=1;direction=south;html=1;" vertex="1" parent="1">
          <mxGeometry x="590" y="360" width="10" height="80" as="geometry" />
        </mxCell>
        <mxCell id="HFR2gXASh5weQDlg1E95-64" value="" style="line;strokeWidth=1;direction=south;html=1;" vertex="1" parent="1">
          <mxGeometry x="660" y="360" width="10" height="100" as="geometry" />
        </mxCell>
        <mxCell id="HFR2gXASh5weQDlg1E95-65" value="" style="line;strokeWidth=1;direction=south;html=1;" vertex="1" parent="1">
          <mxGeometry x="550" y="360" width="10" height="50" as="geometry" />
        </mxCell>
        <mxCell id="HFR2gXASh5weQDlg1E95-66" value="" style="line;strokeWidth=1;html=1;" vertex="1" parent="1">
          <mxGeometry x="500" y="405" width="60" height="10" as="geometry" />
        </mxCell>
        <mxCell id="HFR2gXASh5weQDlg1E95-67" value="" style="line;strokeWidth=1;html=1;fontStyle=1" vertex="1" parent="1">
          <mxGeometry x="670" y="310" width="50" height="10" as="geometry" />
        </mxCell>
        <mxCell id="HFR2gXASh5weQDlg1E95-68" value="" style="line;strokeWidth=1;html=1;" vertex="1" parent="1">
          <mxGeometry x="670" y="350" width="60" height="10" as="geometry" />
        </mxCell>
        <mxCell id="HFR2gXASh5weQDlg1E95-70" value="" style="line;strokeWidth=1;direction=south;html=1;" vertex="1" parent="1">
          <mxGeometry x="720" y="350" width="10" height="60" as="geometry" />
        </mxCell>
      </root>
    </mxGraphModel>
  </diagram>
</mxfile>
